<svg xmlns="http://www.w3.org/2000/svg" xmlns:xlink="http://www.w3.org/1999/xlink" width="77.841" height="31.644"><path fill="#000" d="M13.28 22.79C10.72 22.79 9.53 20.39 9.53 15.69C9.53 10.85 10.96 8.56 14.34 8.56C16.04 8.56 17.63 9.15 18.71 9.83L18.71 7.21C17.79 6.53 16.12 6.02 14.18 6.02C9.02 6.02 6.21 9.69 6.21 15.69C6.21 21.84 8.78 25.33 13.20 25.33C17.50 25.33 19.76 22.57 19.76 17.82L19.76 14.80L13.07 14.80L13.07 17.33L16.50 17.33L16.50 17.90C16.50 20.90 15.71 22.79 13.28 22.79ZM32.08 15.80C32.08 12.50 30.40 11.26 27 11.26C24.87 11.26 23.19 11.93 22.22 12.50L22.22 15.17C23.08 14.53 24.97 13.82 26.62 13.82C28.16 13.82 28.86 14.36 28.86 15.82L28.86 16.58L28.35 16.58C23.44 16.58 21.25 18.20 21.25 20.95C21.25 23.71 22.92 25.25 25.41 25.25C27.30 25.25 28.11 24.62 28.73 23.98L28.86 23.98C28.89 24.33 29.00 24.79 29.11 25.06L32.24 25.06C32.13 23.95 32.08 22.84 32.08 21.73ZM28.86 21.82C28.46 22.41 27.70 22.90 26.57 22.90C25.22 22.90 24.54 22.14 24.54 20.98C24.54 19.44 25.65 18.87 28.40 18.87L28.86 18.87ZM37.88 15.31C38.47 14.58 39.28 13.96 40.45 13.96C41.58 13.96 41.96 14.45 41.96 15.47L41.96 25.06L45.17 25.06L45.17 15.31C45.77 14.58 46.57 13.96 47.74 13.96C48.87 13.96 49.25 14.45 49.25 15.47L49.25 25.06L52.46 25.06L52.46 15.15C52.46 12.45 51.52 11.26 48.90 11.26C46.82 11.26 45.58 12.07 44.82 12.99C44.31 11.80 43.23 11.26 41.47 11.26C39.55 11.26 38.69 11.96 38.04 12.61L37.88 12.61L37.80 11.48L34.67 11.48L34.67 25.06L37.88 25.06ZM65.42 24.14L65.42 21.52C64.42 22.19 62.75 22.79 61.18 22.79C58.83 22.79 57.94 21.68 57.81 19.41L65.56 19.41L65.56 17.71C65.56 12.99 63.48 11.21 60.26 11.21C56.35 11.21 54.49 14.20 54.49 18.31C54.49 23.03 56.81 25.33 60.91 25.33C62.96 25.33 64.48 24.79 65.42 24.14ZM60.21 13.74C61.80 13.74 62.29 15.07 62.29 16.77L62.29 17.04L57.81 17.04C57.89 14.88 58.67 13.74 60.21 13.74ZM71.90 25.33C75.09 25.33 77.17 24.00 77.17 20.79C77.17 18.41 75.52 17.17 72.79 16.79C71.44 16.61 70.31 16.44 70.31 15.15C70.31 14.12 71.12 13.66 72.63 13.66C74.71 13.66 76.03 14.42 76.25 14.58L76.25 11.96C76.25 11.96 74.98 11.21 72.31 11.21C69.01 11.21 67.18 12.93 67.18 15.28C67.18 17.69 68.55 18.93 71.20 19.28C73.06 19.52 74.06 20.03 74.06 21.22C74.06 22.28 73.22 22.79 71.39 22.79C69.04 22.79 67.53 21.57 67.26 21.44L67.26 24.06C67.26 24.06 68.77 25.33 71.90 25.33Z"/></svg>