<svg xmlns="http://www.w3.org/2000/svg" xmlns:xlink="http://www.w3.org/1999/xlink" width="86.48100000000001" height="31.644"><path fill="#000" d="M12.91 15.36L16.90 6.29L13.58 6.29L9.58 15.36ZM10.77 25.06L10.77 21.87C10.77 19.47 10.48 18.77 9.56 16.77L4.75 6.29L1.35 6.29L7.51 19.68L7.51 25.06ZM47.03 25.33C48.55 25.33 49.79 24.62 50.65 23.30L50.81 25.06L53.78 25.06L53.78 6.29L50.57 6.29L50.57 13.07C49.76 11.85 48.57 11.21 47.17 11.21C44.06 11.21 41.90 13.82 41.90 18.36C41.90 22.84 44.01 25.33 47.03 25.33ZM66.77 24.14L66.77 21.52C65.77 22.19 64.10 22.79 62.53 22.79C60.18 22.79 59.29 21.68 59.16 19.41L66.91 19.41L66.91 17.71C66.91 12.99 64.83 11.21 61.61 11.21C57.70 11.21 55.84 14.20 55.84 18.31C55.84 23.03 58.16 25.33 62.26 25.33C64.31 25.33 65.83 24.79 66.77 24.14ZM32.18 15.31C32.78 14.58 33.72 13.96 34.88 13.96C36.02 13.96 36.53 14.45 36.53 15.47L36.53 25.06L39.74 25.06L39.74 15.15C39.74 12.45 38.66 11.26 36.05 11.26C34.13 11.26 32.99 11.96 32.35 12.61L32.18 12.61L32.10 11.48L28.97 11.48L28.97 25.06L32.18 25.06ZM26.35 15.80C26.35 12.50 24.68 11.26 21.28 11.26C19.14 11.26 17.47 11.93 16.50 12.50L16.50 15.17C17.36 14.53 19.25 13.82 20.90 13.82C22.44 13.82 23.14 14.36 23.14 15.82L23.14 16.58L22.63 16.58C17.71 16.58 15.53 18.20 15.53 20.95C15.53 23.71 17.20 25.25 19.68 25.25C21.57 25.25 22.38 24.62 23.00 23.98L23.14 23.98C23.17 24.33 23.27 24.79 23.38 25.06L26.51 25.06C26.41 23.95 26.35 22.84 26.35 21.73ZM76.65 25.06L80.27 25.06L75.84 18.06L79.68 11.48L76.46 11.48L74.14 15.58L71.55 11.48L67.93 11.48L72.04 17.98L67.77 25.06L71.04 25.06L73.76 20.47ZM47.98 13.74C49.71 13.74 50.57 15.12 50.57 18.25C50.57 21.41 49.65 22.79 47.84 22.79C46.09 22.79 45.23 21.44 45.23 18.36C45.23 15.15 46.14 13.74 47.98 13.74ZM61.56 13.74C63.15 13.74 63.64 15.07 63.64 16.77L63.64 17.04L59.16 17.04C59.24 14.88 60.02 13.74 61.56 13.74ZM23.14 21.82C22.73 22.41 21.98 22.90 20.84 22.90C19.49 22.90 18.82 22.14 18.82 20.98C18.82 19.44 19.93 18.87 22.68 18.87L23.14 18.87Z"/></svg>